<svg width="18" height="19" viewBox="0 0 18 19" fill="none" xmlns="http://www.w3.org/2000/svg">
<path d="M14.4239 2.76861C14.3502 2.76861 14.2765 2.75019 14.2121 2.71336C12.444 1.80171 10.9154 1.41494 9.08285 1.41494C7.25954 1.41494 5.52831 1.84775 3.95364 2.71336C3.73263 2.83307 3.45637 2.75019 3.32745 2.52919C3.20774 2.30818 3.29062 2.02271 3.51162 1.903C5.22443 0.972928 7.10299 0.49408 9.08285 0.49408C11.0443 0.49408 12.7571 0.926885 14.6357 1.89379C14.8659 2.0135 14.9487 2.28976 14.829 2.51077C14.7462 2.67653 14.5896 2.76861 14.4239 2.76861ZM1.2463 7.60314C1.15421 7.60314 1.06213 7.57552 0.979249 7.52027C0.767451 7.37293 0.721407 7.08746 0.868745 6.87566C1.7804 5.58645 2.94069 4.5735 4.32198 3.86444C7.21349 2.37264 10.9154 2.36343 13.8161 3.85523C15.1974 4.5643 16.3577 5.56804 17.2693 6.84804C17.4167 7.05063 17.3706 7.3453 17.1588 7.49264C16.947 7.63998 16.6616 7.59394 16.5142 7.38214C15.6854 6.22185 14.6357 5.31019 13.3925 4.6748C10.7496 3.32113 7.37004 3.32113 4.73637 4.68401C3.484 5.32861 2.43421 6.24948 1.60544 7.40976C1.53177 7.53868 1.39364 7.60314 1.2463 7.60314ZM7.0017 18.718C6.88198 18.718 6.76227 18.6719 6.67939 18.5798C5.87824 17.7787 5.44544 17.263 4.82846 16.1488C4.19306 15.0161 3.86155 13.6348 3.86155 12.1522C3.86155 9.41724 6.20054 7.18876 9.07364 7.18876C11.9467 7.18876 14.2857 9.41724 14.2857 12.1522C14.2857 12.4101 14.0831 12.6126 13.8253 12.6126C13.5675 12.6126 13.3649 12.4101 13.3649 12.1522C13.3649 9.92372 11.4403 8.10962 9.07364 8.10962C6.70702 8.10962 4.78242 9.92372 4.78242 12.1522C4.78242 13.4783 5.07709 14.703 5.63882 15.6975C6.22817 16.7565 6.63335 17.2077 7.34242 17.926C7.51738 18.1102 7.51738 18.3957 7.34242 18.5798C7.24112 18.6719 7.12141 18.718 7.0017 18.718ZM13.6043 17.0144C12.5085 17.0144 11.5416 16.7381 10.7496 16.1948C9.37752 15.2647 8.55795 13.7545 8.55795 12.1522C8.55795 11.8944 8.76054 11.6918 9.01839 11.6918C9.27623 11.6918 9.47882 11.8944 9.47882 12.1522C9.47882 13.4506 10.1418 14.6754 11.2653 15.4305C11.9191 15.8725 12.6834 16.0843 13.6043 16.0843C13.8253 16.0843 14.1936 16.0567 14.562 15.9922C14.8106 15.9462 15.05 16.1119 15.0961 16.3698C15.1421 16.6184 14.9764 16.8578 14.7185 16.9039C14.1936 17.0052 13.7332 17.0144 13.6043 17.0144ZM11.7534 18.9113C11.7165 18.9113 11.6705 18.9021 11.6336 18.8929C10.1695 18.4877 9.21177 17.9444 8.20803 16.9591C6.91882 15.6791 6.20975 13.9755 6.20975 12.1522C6.20975 10.6604 7.48054 9.44487 9.04601 9.44487C10.6115 9.44487 11.8823 10.6604 11.8823 12.1522C11.8823 13.1375 12.7387 13.9387 13.7977 13.9387C14.8567 13.9387 15.7131 13.1375 15.7131 12.1522C15.7131 8.68055 12.7203 5.86271 9.0368 5.86271C6.42155 5.86271 4.02731 7.31768 2.9499 9.57379C2.59076 10.3197 2.40659 11.1945 2.40659 12.1522C2.40659 12.8705 2.47105 14.0031 3.02357 15.4765C3.11565 15.716 2.99594 15.983 2.75652 16.0659C2.51709 16.158 2.25004 16.029 2.16716 15.7988C1.71594 14.5925 1.49493 13.3954 1.49493 12.1522C1.49493 11.0472 1.70673 10.0434 2.12112 9.16861C3.34587 6.5994 6.06241 4.93264 9.0368 4.93264C13.2267 4.93264 16.6339 8.16487 16.6339 12.143C16.6339 13.6348 15.3631 14.8503 13.7977 14.8503C12.2322 14.8503 10.9614 13.6348 10.9614 12.143C10.9614 11.1577 10.105 10.3565 9.04601 10.3565C7.98702 10.3565 7.13062 11.1577 7.13062 12.143C7.13062 13.7177 7.73839 15.1911 8.85263 16.2961C9.72745 17.1617 10.5654 17.6406 11.8639 17.9997C12.1125 18.0642 12.2506 18.322 12.1862 18.5614C12.1401 18.7732 11.9467 18.9113 11.7534 18.9113Z" fill="white"/>
</svg>


