<svg width="19" height="18" viewBox="0 0 19 18" fill="none" xmlns="http://www.w3.org/2000/svg">
<path d="M5.40749 1.7663L4.12027 0.479079C1.95989 2.12637 0.537643 4.66481 0.411621 7.54531H2.21194C2.34696 5.1599 3.57117 3.07153 5.40749 1.7663ZM16.5604 7.54531H18.3608C18.2257 4.66481 16.8035 2.12637 14.6521 0.479079L13.3739 1.7663C15.1922 3.07153 16.4254 5.1599 16.5604 7.54531ZM14.7871 7.99539C14.7871 5.23191 13.3109 2.9185 10.7364 2.3064V1.69429C10.7364 0.947161 10.1333 0.344055 9.38619 0.344055C8.63906 0.344055 8.03595 0.947161 8.03595 1.69429V2.3064C5.4525 2.9185 3.98524 5.22291 3.98524 7.99539V12.4962L2.18493 14.2965V15.1967H16.5874V14.2965L14.7871 12.4962V7.99539ZM9.38619 17.8971C9.51221 17.8971 9.62923 17.8881 9.74625 17.8611C10.3314 17.7351 10.8084 17.339 11.0425 16.7989C11.1325 16.5829 11.1775 16.3489 11.1775 16.0968H7.57687C7.58587 17.087 8.38701 17.8971 9.38619 17.8971Z" fill="#046AF3"/>
</svg>
