<svg width="18" height="19" viewBox="0 0 18 19" fill="none" xmlns="http://www.w3.org/2000/svg">
<path d="M14.4239 2.54485C14.3502 2.54485 14.2765 2.52643 14.2121 2.4896C12.444 1.57794 10.9154 1.19118 9.08285 1.19118C7.25954 1.19118 5.52831 1.62398 3.95364 2.4896C3.73263 2.60931 3.45637 2.52643 3.32745 2.30542C3.20774 2.08442 3.29062 1.79895 3.51162 1.67924C5.22443 0.749164 7.10299 0.270315 9.08285 0.270315C11.0443 0.270315 12.7571 0.703121 14.6357 1.67003C14.8659 1.78974 14.9487 2.066 14.829 2.28701C14.7462 2.45276 14.5896 2.54485 14.4239 2.54485ZM1.2463 7.37938C1.15421 7.37938 1.06213 7.35175 0.979249 7.2965C0.767451 7.14916 0.721407 6.8637 0.868745 6.6519C1.7804 5.36269 2.94069 4.34974 4.32198 3.64067C7.21349 2.14888 10.9154 2.13967 13.8161 3.63147C15.1974 4.34053 16.3577 5.34427 17.2693 6.62427C17.4167 6.82686 17.3706 7.12154 17.1588 7.26888C16.947 7.41621 16.6616 7.37017 16.5142 7.15837C15.6854 5.99808 14.6357 5.08643 13.3925 4.45103C10.7496 3.09737 7.37004 3.09737 4.73637 4.46024C3.484 5.10485 2.43421 6.02571 1.60544 7.186C1.53177 7.31492 1.39364 7.37938 1.2463 7.37938ZM7.0017 18.4942C6.88198 18.4942 6.76227 18.4482 6.67939 18.3561C5.87824 17.5549 5.44544 17.0392 4.82846 15.925C4.19306 14.7923 3.86155 13.411 3.86155 11.9284C3.86155 9.19348 6.20054 6.96499 9.07364 6.96499C11.9467 6.96499 14.2857 9.19348 14.2857 11.9284C14.2857 12.1863 14.0831 12.3889 13.8253 12.3889C13.5675 12.3889 13.3649 12.1863 13.3649 11.9284C13.3649 9.69995 11.4403 7.88586 9.07364 7.88586C6.70702 7.88586 4.78242 9.69995 4.78242 11.9284C4.78242 13.2545 5.07709 14.4792 5.63882 15.4738C6.22817 16.5328 6.63335 16.984 7.34242 17.7023C7.51738 17.8864 7.51738 18.1719 7.34242 18.3561C7.24112 18.4482 7.12141 18.4942 7.0017 18.4942ZM13.6043 16.7906C12.5085 16.7906 11.5416 16.5143 10.7496 15.971C9.37752 15.041 8.55795 13.5307 8.55795 11.9284C8.55795 11.6706 8.76054 11.468 9.01839 11.468C9.27623 11.468 9.47882 11.6706 9.47882 11.9284C9.47882 13.2269 10.1418 14.4516 11.2653 15.2067C11.9191 15.6487 12.6834 15.8605 13.6043 15.8605C13.8253 15.8605 14.1936 15.8329 14.562 15.7684C14.8106 15.7224 15.05 15.8882 15.0961 16.146C15.1421 16.3946 14.9764 16.6341 14.7185 16.6801C14.1936 16.7814 13.7332 16.7906 13.6043 16.7906ZM11.7534 18.6876C11.7165 18.6876 11.6705 18.6784 11.6336 18.6692C10.1695 18.264 9.21177 17.7207 8.20803 16.7354C6.91882 15.4554 6.20975 13.7518 6.20975 11.9284C6.20975 10.4366 7.48054 9.22111 9.04601 9.22111C10.6115 9.22111 11.8823 10.4366 11.8823 11.9284C11.8823 12.9138 12.7387 13.7149 13.7977 13.7149C14.8567 13.7149 15.7131 12.9138 15.7131 11.9284C15.7131 8.45679 12.7203 5.63895 9.0368 5.63895C6.42155 5.63895 4.02731 7.09391 2.9499 9.35003C2.59076 10.0959 2.40659 10.9707 2.40659 11.9284C2.40659 12.6467 2.47105 13.7794 3.02357 15.2528C3.11565 15.4922 2.99594 15.7592 2.75652 15.8421C2.51709 15.9342 2.25004 15.8053 2.16716 15.5751C1.71594 14.3687 1.49493 13.1716 1.49493 11.9284C1.49493 10.8234 1.70673 9.81967 2.12112 8.94485C3.34587 6.37564 6.06241 4.70888 9.0368 4.70888C13.2267 4.70888 16.6339 7.94111 16.6339 11.9192C16.6339 13.411 15.3631 14.6266 13.7977 14.6266C12.2322 14.6266 10.9614 13.411 10.9614 11.9192C10.9614 10.9339 10.105 10.1328 9.04601 10.1328C7.98702 10.1328 7.13062 10.9339 7.13062 11.9192C7.13062 13.4939 7.73839 14.9673 8.85263 16.0723C9.72745 16.9379 10.5654 17.4168 11.8639 17.7759C12.1125 17.8404 12.2506 18.0982 12.1862 18.3377C12.1401 18.5495 11.9467 18.6876 11.7534 18.6876Z" fill="white"/>
</svg>
