<svg width="18" height="19" viewBox="0 0 18 19" fill="none" xmlns="http://www.w3.org/2000/svg">
<path d="M15.5197 1.97377H11.6705C11.2837 0.905567 10.2708 0.132042 9.07366 0.132042C7.87654 0.132042 6.86359 0.905567 6.47682 1.97377H2.62762C1.61467 1.97377 0.785889 2.80255 0.785889 3.8155V16.7076C0.785889 17.7205 1.61467 18.5493 2.62762 18.5493H15.5197C16.5327 18.5493 17.3614 17.7205 17.3614 16.7076V3.8155C17.3614 2.80255 16.5327 1.97377 15.5197 1.97377ZM9.07366 1.97377C9.58013 1.97377 9.99452 2.38816 9.99452 2.89463C9.99452 3.40111 9.58013 3.8155 9.07366 3.8155C8.56718 3.8155 8.15279 3.40111 8.15279 2.89463C8.15279 2.38816 8.56718 1.97377 9.07366 1.97377ZM9.07366 15.7867L4.46934 11.1824H7.23193V7.49895H10.9154V11.1824H13.678L9.07366 15.7867Z" fill="white"/>
</svg>
