<svg width="4" height="14" viewBox="0 0 4 14" fill="none" xmlns="http://www.w3.org/2000/svg">
<path d="M2.39252 3.695C3.27267 3.695 3.99279 2.97488 3.99279 2.09473C3.99279 1.21457 3.27267 0.494446 2.39252 0.494446C1.51236 0.494446 0.792236 1.21457 0.792236 2.09473C0.792236 2.97488 1.51236 3.695 2.39252 3.695ZM2.39252 5.29528C1.51236 5.29528 0.792236 6.01541 0.792236 6.89556C0.792236 7.77572 1.51236 8.49584 2.39252 8.49584C3.27267 8.49584 3.99279 7.77572 3.99279 6.89556C3.99279 6.01541 3.27267 5.29528 2.39252 5.29528ZM2.39252 10.0961C1.51236 10.0961 0.792236 10.8162 0.792236 11.6964C0.792236 12.5766 1.51236 13.2967 2.39252 13.2967C3.27267 13.2967 3.99279 12.5766 3.99279 11.6964C3.99279 10.8162 3.27267 10.0961 2.39252 10.0961Z" fill="#046AF3"/>
</svg>
