<svg width="18" height="19" viewBox="0 0 18 19" fill="none" xmlns="http://www.w3.org/2000/svg">
<path d="M15.5197 2.19753H11.6705C11.2837 1.12933 10.2708 0.355804 9.07366 0.355804C7.87654 0.355804 6.86359 1.12933 6.47682 2.19753H2.62762C1.61467 2.19753 0.785889 3.02631 0.785889 4.03926V16.9313C0.785889 17.9443 1.61467 18.7731 2.62762 18.7731H15.5197C16.5327 18.7731 17.3614 17.9443 17.3614 16.9313V4.03926C17.3614 3.02631 16.5327 2.19753 15.5197 2.19753ZM9.07366 2.19753C9.58013 2.19753 9.99452 2.61192 9.99452 3.11839C9.99452 3.62487 9.58013 4.03926 9.07366 4.03926C8.56718 4.03926 8.15279 3.62487 8.15279 3.11839C8.15279 2.61192 8.56718 2.19753 9.07366 2.19753ZM9.07366 16.0105L4.46934 11.4062H7.23193V7.72271H10.9154V11.4062H13.678L9.07366 16.0105Z" fill="white"/>
</svg>
