<svg width="20" height="20" viewBox="0 0 20 20" fill="none" xmlns="http://www.w3.org/2000/svg">
<path d="M10.0736 0.835373C4.99046 0.835373 0.86499 4.96084 0.86499 10.044C0.86499 15.1272 4.99046 19.2526 10.0736 19.2526C15.1568 19.2526 19.2823 15.1272 19.2823 10.044C19.2823 4.96084 15.1568 0.835373 10.0736 0.835373ZM11.372 15.6521V17.4109H8.91334V15.6336C7.33866 15.3021 6.00341 14.2892 5.90211 12.5027H7.70701C7.79909 13.4696 8.46211 14.2247 10.1473 14.2247C11.9522 14.2247 12.3574 13.3223 12.3574 12.7606C12.3574 11.9962 11.9522 11.278 9.89866 10.7899C7.61492 10.2374 6.04945 9.29811 6.04945 7.41034C6.04945 5.82645 7.32945 4.79509 8.91334 4.45437V2.6771H11.372V4.47278C13.0848 4.88717 13.9412 6.18559 13.9965 7.59451H12.1916C12.1456 6.57235 11.6023 5.8725 10.1473 5.8725C8.766 5.8725 7.93722 6.49868 7.93722 7.38271C7.93722 8.15624 8.53578 8.66271 10.3959 9.14156C12.2561 9.62041 14.2451 10.4216 14.2451 12.7421C14.2359 14.4273 12.9743 15.3482 11.372 15.6521Z" fill="white"/>
</svg>
