<svg width="20" height="19" viewBox="0 0 20 19" fill="none" xmlns="http://www.w3.org/2000/svg">
<path d="M10.0736 0.0592499C4.99046 0.0592499 0.86499 4.18472 0.86499 9.26788C0.86499 14.351 4.99046 18.4765 10.0736 18.4765C15.1568 18.4765 19.2823 14.351 19.2823 9.26788C19.2823 4.18472 15.1568 0.0592499 10.0736 0.0592499ZM11.372 14.8759V16.6348H8.91334V14.8575C7.33866 14.526 6.00341 13.5131 5.90211 11.7266H7.70701C7.79909 12.6935 8.46211 13.4486 10.1473 13.4486C11.9522 13.4486 12.3574 12.5462 12.3574 11.9844C12.3574 11.2201 11.9522 10.5018 9.89866 10.0138C7.61492 9.46126 6.04945 8.52198 6.04945 6.63421C6.04945 5.05033 7.32945 4.01896 8.91334 3.67824V1.90098H11.372V3.69666C13.0848 4.11105 13.9412 5.40947 13.9965 6.81839H12.1916C12.1456 5.79623 11.6023 5.09637 10.1473 5.09637C8.766 5.09637 7.93722 5.72256 7.93722 6.60659C7.93722 7.38011 8.53578 7.88659 10.3959 8.36544C12.2561 8.84429 14.2451 9.64544 14.2451 11.966C14.2359 13.6512 12.9743 14.5721 11.372 14.8759Z" fill="white"/>
</svg>
