<svg width="17" height="18" viewBox="0 0 17 18" fill="none" xmlns="http://www.w3.org/2000/svg">
<path d="M12.2934 11.062H11.5344L11.2654 10.8026C12.2069 9.70741 12.7737 8.28555 12.7737 6.7388C12.7737 3.28983 9.97806 0.494141 6.52908 0.494141C3.08011 0.494141 0.284424 3.28983 0.284424 6.7388C0.284424 10.1878 3.08011 12.9835 6.52908 12.9835C8.07584 12.9835 9.4977 12.4166 10.5929 11.4751L10.8523 11.7441V12.5031L15.6559 17.2971L17.0874 15.8656L12.2934 11.062ZM6.52908 11.062C4.1369 11.062 2.20586 9.13098 2.20586 6.7388C2.20586 4.34661 4.1369 2.41557 6.52908 2.41557C8.92127 2.41557 10.8523 4.34661 10.8523 6.7388C10.8523 9.13098 8.92127 11.062 6.52908 11.062Z" fill="#046AF3"/>
</svg>
