<svg aria-hidden="true" style="position: absolute; width: 0; height: 0; overflow: hidden;" version="1.1" xmlns="http://www.w3.org/2000/svg" xmlns:xlink="http://www.w3.org/1999/xlink">
<defs>
<symbol id="account" viewBox="0 0 20 20">
<path d="M14.4239 2.76861C14.3502 2.76861 14.2765 2.75019 14.2121 2.71336C12.444 1.80171 10.9154 1.41494 9.08285 1.41494C7.25954 1.41494 5.52831 1.84775 3.95364 2.71336C3.73263 2.83307 3.45637 2.75019 3.32745 2.52919C3.20774 2.30818 3.29062 2.02271 3.51162 1.903C5.22443 0.972928 7.10299 0.49408 9.08285 0.49408C11.0443 0.49408 12.7571 0.926885 14.6357 1.89379C14.8659 2.0135 14.9487 2.28976 14.829 2.51077C14.7462 2.67653 14.5896 2.76861 14.4239 2.76861ZM1.2463 7.60314C1.15421 7.60314 1.06213 7.57552 0.979249 7.52027C0.767451 7.37293 0.721407 7.08746 0.868745 6.87566C1.7804 5.58645 2.94069 4.5735 4.32198 3.86444C7.21349 2.37264 10.9154 2.36343 13.8161 3.85523C15.1974 4.5643 16.3577 5.56804 17.2693 6.84804C17.4167 7.05063 17.3706 7.3453 17.1588 7.49264C16.947 7.63998 16.6616 7.59394 16.5142 7.38214C15.6854 6.22185 14.6357 5.31019 13.3925 4.6748C10.7496 3.32113 7.37004 3.32113 4.73637 4.68401C3.484 5.32861 2.43421 6.24948 1.60544 7.40976C1.53177 7.53868 1.39364 7.60314 1.2463 7.60314ZM7.0017 18.718C6.88198 18.718 6.76227 18.6719 6.67939 18.5798C5.87824 17.7787 5.44544 17.263 4.82846 16.1488C4.19306 15.0161 3.86155 13.6348 3.86155 12.1522C3.86155 9.41724 6.20054 7.18876 9.07364 7.18876C11.9467 7.18876 14.2857 9.41724 14.2857 12.1522C14.2857 12.4101 14.0831 12.6126 13.8253 12.6126C13.5675 12.6126 13.3649 12.4101 13.3649 12.1522C13.3649 9.92372 11.4403 8.10962 9.07364 8.10962C6.70702 8.10962 4.78242 9.92372 4.78242 12.1522C4.78242 13.4783 5.07709 14.703 5.63882 15.6975C6.22817 16.7565 6.63335 17.2077 7.34242 17.926C7.51738 18.1102 7.51738 18.3957 7.34242 18.5798C7.24112 18.6719 7.12141 18.718 7.0017 18.718ZM13.6043 17.0144C12.5085 17.0144 11.5416 16.7381 10.7496 16.1948C9.37752 15.2647 8.55795 13.7545 8.55795 12.1522C8.55795 11.8944 8.76054 11.6918 9.01839 11.6918C9.27623 11.6918 9.47882 11.8944 9.47882 12.1522C9.47882 13.4506 10.1418 14.6754 11.2653 15.4305C11.9191 15.8725 12.6834 16.0843 13.6043 16.0843C13.8253 16.0843 14.1936 16.0567 14.562 15.9922C14.8106 15.9462 15.05 16.1119 15.0961 16.3698C15.1421 16.6184 14.9764 16.8578 14.7185 16.9039C14.1936 17.0052 13.7332 17.0144 13.6043 17.0144ZM11.7534 18.9113C11.7165 18.9113 11.6705 18.9021 11.6336 18.8929C10.1695 18.4877 9.21177 17.9444 8.20803 16.9591C6.91882 15.6791 6.20975 13.9755 6.20975 12.1522C6.20975 10.6604 7.48054 9.44487 9.04601 9.44487C10.6115 9.44487 11.8823 10.6604 11.8823 12.1522C11.8823 13.1375 12.7387 13.9387 13.7977 13.9387C14.8567 13.9387 15.7131 13.1375 15.7131 12.1522C15.7131 8.68055 12.7203 5.86271 9.0368 5.86271C6.42155 5.86271 4.02731 7.31768 2.9499 9.57379C2.59076 10.3197 2.40659 11.1945 2.40659 12.1522C2.40659 12.8705 2.47105 14.0031 3.02357 15.4765C3.11565 15.716 2.99594 15.983 2.75652 16.0659C2.51709 16.158 2.25004 16.029 2.16716 15.7988C1.71594 14.5925 1.49493 13.3954 1.49493 12.1522C1.49493 11.0472 1.70673 10.0434 2.12112 9.16861C3.34587 6.5994 6.06241 4.93264 9.0368 4.93264C13.2267 4.93264 16.6339 8.16487 16.6339 12.143C16.6339 13.6348 15.3631 14.8503 13.7977 14.8503C12.2322 14.8503 10.9614 13.6348 10.9614 12.143C10.9614 11.1577 10.105 10.3565 9.04601 10.3565C7.98702 10.3565 7.13062 11.1577 7.13062 12.143C7.13062 13.7177 7.73839 15.1911 8.85263 16.2961C9.72745 17.1617 10.5654 17.6406 11.8639 17.9997C12.1125 18.0642 12.2506 18.322 12.1862 18.5614C12.1401 18.7732 11.9467 18.9113 11.7534 18.9113Z" fill="white"/>
</symbol>
<symbol id="borrowers" viewBox="0 0 20 20">
<path d="M17.4403 0.587646H2.70647C1.69352 0.587646 0.873955 1.41642 0.873955 2.42937L0.864746 19.0049L4.5482 15.3215H17.4403C18.4532 15.3215 19.282 14.4927 19.282 13.4797V2.42937C19.282 1.41642 18.4532 0.587646 17.4403 0.587646ZM15.5986 11.638H4.5482V9.79628H15.5986V11.638ZM15.5986 8.87542H4.5482V7.03369H15.5986V8.87542ZM15.5986 6.11283H4.5482V4.2711H15.5986V6.11283Z" fill="white"/>
</symbol>
<symbol id="calendar" viewBox="0 0 20 20">
<path d="M14.4239 2.54485C14.3502 2.54485 14.2765 2.52643 14.2121 2.4896C12.444 1.57794 10.9154 1.19118 9.08285 1.19118C7.25954 1.19118 5.52831 1.62398 3.95364 2.4896C3.73263 2.60931 3.45637 2.52643 3.32745 2.30542C3.20774 2.08442 3.29062 1.79895 3.51162 1.67924C5.22443 0.749164 7.10299 0.270315 9.08285 0.270315C11.0443 0.270315 12.7571 0.703121 14.6357 1.67003C14.8659 1.78974 14.9487 2.066 14.829 2.28701C14.7462 2.45276 14.5896 2.54485 14.4239 2.54485ZM1.2463 7.37938C1.15421 7.37938 1.06213 7.35175 0.979249 7.2965C0.767451 7.14916 0.721407 6.8637 0.868745 6.6519C1.7804 5.36269 2.94069 4.34974 4.32198 3.64067C7.21349 2.14888 10.9154 2.13967 13.8161 3.63147C15.1974 4.34053 16.3577 5.34427 17.2693 6.62427C17.4167 6.82686 17.3706 7.12154 17.1588 7.26888C16.947 7.41621 16.6616 7.37017 16.5142 7.15837C15.6854 5.99808 14.6357 5.08643 13.3925 4.45103C10.7496 3.09737 7.37004 3.09737 4.73637 4.46024C3.484 5.10485 2.43421 6.02571 1.60544 7.186C1.53177 7.31492 1.39364 7.37938 1.2463 7.37938ZM7.0017 18.4942C6.88198 18.4942 6.76227 18.4482 6.67939 18.3561C5.87824 17.5549 5.44544 17.0392 4.82846 15.925C4.19306 14.7923 3.86155 13.411 3.86155 11.9284C3.86155 9.19348 6.20054 6.96499 9.07364 6.96499C11.9467 6.96499 14.2857 9.19348 14.2857 11.9284C14.2857 12.1863 14.0831 12.3889 13.8253 12.3889C13.5675 12.3889 13.3649 12.1863 13.3649 11.9284C13.3649 9.69995 11.4403 7.88586 9.07364 7.88586C6.70702 7.88586 4.78242 9.69995 4.78242 11.9284C4.78242 13.2545 5.07709 14.4792 5.63882 15.4738C6.22817 16.5328 6.63335 16.984 7.34242 17.7023C7.51738 17.8864 7.51738 18.1719 7.34242 18.3561C7.24112 18.4482 7.12141 18.4942 7.0017 18.4942ZM13.6043 16.7906C12.5085 16.7906 11.5416 16.5143 10.7496 15.971C9.37752 15.041 8.55795 13.5307 8.55795 11.9284C8.55795 11.6706 8.76054 11.468 9.01839 11.468C9.27623 11.468 9.47882 11.6706 9.47882 11.9284C9.47882 13.2269 10.1418 14.4516 11.2653 15.2067C11.9191 15.6487 12.6834 15.8605 13.6043 15.8605C13.8253 15.8605 14.1936 15.8329 14.562 15.7684C14.8106 15.7224 15.05 15.8882 15.0961 16.146C15.1421 16.3946 14.9764 16.6341 14.7185 16.6801C14.1936 16.7814 13.7332 16.7906 13.6043 16.7906ZM11.7534 18.6876C11.7165 18.6876 11.6705 18.6784 11.6336 18.6692C10.1695 18.264 9.21177 17.7207 8.20803 16.7354C6.91882 15.4554 6.20975 13.7518 6.20975 11.9284C6.20975 10.4366 7.48054 9.22111 9.04601 9.22111C10.6115 9.22111 11.8823 10.4366 11.8823 11.9284C11.8823 12.9138 12.7387 13.7149 13.7977 13.7149C14.8567 13.7149 15.7131 12.9138 15.7131 11.9284C15.7131 8.45679 12.7203 5.63895 9.0368 5.63895C6.42155 5.63895 4.02731 7.09391 2.9499 9.35003C2.59076 10.0959 2.40659 10.9707 2.40659 11.9284C2.40659 12.6467 2.47105 13.7794 3.02357 15.2528C3.11565 15.4922 2.99594 15.7592 2.75652 15.8421C2.51709 15.9342 2.25004 15.8053 2.16716 15.5751C1.71594 14.3687 1.49493 13.1716 1.49493 11.9284C1.49493 10.8234 1.70673 9.81967 2.12112 8.94485C3.34587 6.37564 6.06241 4.70888 9.0368 4.70888C13.2267 4.70888 16.6339 7.94111 16.6339 11.9192C16.6339 13.411 15.3631 14.6266 13.7977 14.6266C12.2322 14.6266 10.9614 13.411 10.9614 11.9192C10.9614 10.9339 10.105 10.1328 9.04601 10.1328C7.98702 10.1328 7.13062 10.9339 7.13062 11.9192C7.13062 13.4939 7.73839 14.9673 8.85263 16.0723C9.72745 16.9379 10.5654 17.4168 11.8639 17.7759C12.1125 17.8404 12.2506 18.0982 12.1862 18.3377C12.1401 18.5495 11.9467 18.6876 11.7534 18.6876Z" fill="white"/>
</symbol>

<symbol id="collatera" viewBox="0 0 20 20">
<path d="M15.5197 1.97377H11.6705C11.2837 0.905567 10.2708 0.132042 9.07366 0.132042C7.87654 0.132042 6.86359 0.905567 6.47682 1.97377H2.62762C1.61467 1.97377 0.785889 2.80255 0.785889 3.8155V16.7076C0.785889 17.7205 1.61467 18.5493 2.62762 18.5493H15.5197C16.5327 18.5493 17.3614 17.7205 17.3614 16.7076V3.8155C17.3614 2.80255 16.5327 1.97377 15.5197 1.97377ZM9.07366 1.97377C9.58013 1.97377 9.99452 2.38816 9.99452 2.89463C9.99452 3.40111 9.58013 3.8155 9.07366 3.8155C8.56718 3.8155 8.15279 3.40111 8.15279 2.89463C8.15279 2.38816 8.56718 1.97377 9.07366 1.97377ZM9.07366 15.7867L4.46934 11.1824H7.23193V7.49895H10.9154V11.1824H13.678L9.07366 15.7867Z" fill="white"/>

</symbol>
<symbol id="collection" viewBox="0 0 20 20">
<path d="M6.77503 5.44432L2.00496 0.683453L0.706543 1.98187L5.46741 6.74273L6.77503 5.44432ZM10.3756 0.683453L12.2542 2.56201L0.706543 14.1188L2.00496 15.4173L13.5618 3.86964L15.4404 5.7482V0.683453H10.3756ZM10.6795 9.34877L9.38107 10.6472L12.2634 13.5295L10.3756 15.4173H15.4404V10.3525L13.5618 12.2311L10.6795 9.34877Z" fill="white"/>

</symbol>

<symbol id="dashboard" viewBox="0 0 20 20">
<path d="M0.785645 9.20863H8.15255V0H0.785645V9.20863ZM0.785645 16.5755H8.15255V11.0504H0.785645V16.5755ZM9.99428 16.5755H17.3612V7.36691H9.99428V16.5755ZM9.99428 0V5.52518H17.3612V0H9.99428Z" fill="#046AF3"/>

</symbol>

<symbol id="investor" viewBox="0 0 20 20">
<path d="M15.5197 2.19753H11.6705C11.2837 1.12933 10.2708 0.355804 9.07366 0.355804C7.87654 0.355804 6.86359 1.12933 6.47682 2.19753H2.62762C1.61467 2.19753 0.785889 3.02631 0.785889 4.03926V16.9313C0.785889 17.9443 1.61467 18.7731 2.62762 18.7731H15.5197C16.5327 18.7731 17.3614 17.9443 17.3614 16.9313V4.03926C17.3614 3.02631 16.5327 2.19753 15.5197 2.19753ZM9.07366 2.19753C9.58013 2.19753 9.99452 2.61192 9.99452 3.11839C9.99452 3.62487 9.58013 4.03926 9.07366 4.03926C8.56718 4.03926 8.15279 3.62487 8.15279 3.11839C8.15279 2.61192 8.56718 2.19753 9.07366 2.19753ZM9.07366 16.0105L4.46934 11.4062H7.23193V7.72271H10.9154V11.4062H13.678L9.07366 16.0105Z" fill="white"/>

</symbol>

<symbol id="load" viewBox="0 0 20 20">
<path d="M6.77503 5.2205L2.00496 0.459641L0.706543 1.75806L5.46741 6.51892L6.77503 5.2205ZM10.3756 0.459641L12.2542 2.3382L0.706543 13.895L2.00496 15.1935L13.5618 3.64583L15.4404 5.52439V0.459641H10.3756ZM10.6795 9.12496L9.38107 10.4234L12.2634 13.3057L10.3756 15.1935H15.4404V10.1287L13.5618 12.0073L10.6795 9.12496Z" fill="white"/>

</symbol>

<symbol id="repayment" viewBox="0 0 20 20">
<path d="M10.0736 0.835373C4.99046 0.835373 0.86499 4.96084 0.86499 10.044C0.86499 15.1272 4.99046 19.2526 10.0736 19.2526C15.1568 19.2526 19.2823 15.1272 19.2823 10.044C19.2823 4.96084 15.1568 0.835373 10.0736 0.835373ZM11.372 15.6521V17.4109H8.91334V15.6336C7.33866 15.3021 6.00341 14.2892 5.90211 12.5027H7.70701C7.79909 13.4696 8.46211 14.2247 10.1473 14.2247C11.9522 14.2247 12.3574 13.3223 12.3574 12.7606C12.3574 11.9962 11.9522 11.278 9.89866 10.7899C7.61492 10.2374 6.04945 9.29811 6.04945 7.41034C6.04945 5.82645 7.32945 4.79509 8.91334 4.45437V2.6771H11.372V4.47278C13.0848 4.88717 13.9412 6.18559 13.9965 7.59451H12.1916C12.1456 6.57235 11.6023 5.8725 10.1473 5.8725C8.766 5.8725 7.93722 6.49868 7.93722 7.38271C7.93722 8.15624 8.53578 8.66271 10.3959 9.14156C12.2561 9.62041 14.2451 10.4216 14.2451 12.7421C14.2359 14.4273 12.9743 15.3482 11.372 15.6521Z" fill="white"/>

</symbol>

<symbol id="transaction" viewBox="0 0 20 20">
<path d="M15.5197 0.238312H2.62762C1.61467 0.238312 0.785889 1.06709 0.785889 2.08004V14.9721C0.785889 15.9851 1.61467 16.8139 2.62762 16.8139H15.5197C16.5327 16.8139 17.3614 15.9851 17.3614 14.9721V2.08004C17.3614 1.06709 16.5327 0.238312 15.5197 0.238312ZM6.31107 13.1304H4.46934V6.68435H6.31107V13.1304ZM9.99452 13.1304H8.15279V3.92176H9.99452V13.1304ZM13.678 13.1304H11.8362V9.44694H13.678V13.1304Z" fill="white"/>

</symbol>
<symbol id="verification" viewBox="0 0 20 20">
<path d="M14.4239 2.86932C14.3502 2.86932 14.2765 2.8509 14.2121 2.81407C12.444 1.90241 10.9154 1.51565 9.08285 1.51565C7.25954 1.51565 5.52831 1.94846 3.95364 2.81407C3.73263 2.93378 3.45637 2.8509 3.32745 2.6299C3.20774 2.40889 3.29062 2.12342 3.51162 2.00371C5.22443 1.07364 7.10299 0.594788 9.08285 0.594788C11.0443 0.594788 12.7571 1.02759 14.6357 1.9945C14.8659 2.11421 14.9487 2.39047 14.829 2.61148C14.7462 2.77723 14.5896 2.86932 14.4239 2.86932ZM1.2463 7.70385C1.15421 7.70385 1.06213 7.67623 0.979249 7.62098C0.767451 7.47364 0.721407 7.18817 0.868745 6.97637C1.7804 5.68716 2.94069 4.67421 4.32198 3.96515C7.21349 2.47335 10.9154 2.46414 13.8161 3.95594C15.1974 4.665 16.3577 5.66874 17.2693 6.94874C17.4167 7.15133 17.3706 7.44601 17.1588 7.59335C16.947 7.74069 16.6616 7.69464 16.5142 7.48284C15.6854 6.32256 14.6357 5.4109 13.3925 4.77551C10.7496 3.42184 7.37004 3.42184 4.73637 4.78472C3.484 5.42932 2.43421 6.35018 1.60544 7.51047C1.53177 7.63939 1.39364 7.70385 1.2463 7.70385ZM7.0017 18.8187C6.88198 18.8187 6.76227 18.7726 6.67939 18.6805C5.87824 17.8794 5.44544 17.3637 4.82846 16.2495C4.19306 15.1168 3.86155 13.7355 3.86155 12.2529C3.86155 9.51795 6.20054 7.28946 9.07364 7.28946C11.9467 7.28946 14.2857 9.51795 14.2857 12.2529C14.2857 12.5108 14.0831 12.7133 13.8253 12.7133C13.5675 12.7133 13.3649 12.5108 13.3649 12.2529C13.3649 10.0244 11.4403 8.21033 9.07364 8.21033C6.70702 8.21033 4.78242 10.0244 4.78242 12.2529C4.78242 13.579 5.07709 14.8037 5.63882 15.7982C6.22817 16.8572 6.63335 17.3085 7.34242 18.0267C7.51738 18.2109 7.51738 18.4964 7.34242 18.6805C7.24112 18.7726 7.12141 18.8187 7.0017 18.8187ZM13.6043 17.1151C12.5085 17.1151 11.5416 16.8388 10.7496 16.2955C9.37752 15.3654 8.55795 13.8552 8.55795 12.2529C8.55795 11.9951 8.76054 11.7925 9.01839 11.7925C9.27623 11.7925 9.47882 11.9951 9.47882 12.2529C9.47882 13.5513 10.1418 14.7761 11.2653 15.5312C11.9191 15.9732 12.6834 16.185 13.6043 16.185C13.8253 16.185 14.1936 16.1574 14.562 16.0929C14.8106 16.0469 15.05 16.2126 15.0961 16.4705C15.1421 16.7191 14.9764 16.9585 14.7185 17.0046C14.1936 17.1059 13.7332 17.1151 13.6043 17.1151ZM11.7534 19.0121C11.7165 19.0121 11.6705 19.0028 11.6336 18.9936C10.1695 18.5885 9.21177 18.0451 8.20803 17.0598C6.91882 15.7798 6.20975 14.0762 6.20975 12.2529C6.20975 10.7611 7.48054 9.54558 9.04601 9.54558C10.6115 9.54558 11.8823 10.7611 11.8823 12.2529C11.8823 13.2382 12.7387 14.0394 13.7977 14.0394C14.8567 14.0394 15.7131 13.2382 15.7131 12.2529C15.7131 8.78126 12.7203 5.96342 9.0368 5.96342C6.42155 5.96342 4.02731 7.41838 2.9499 9.6745C2.59076 10.4204 2.40659 11.2952 2.40659 12.2529C2.40659 12.9712 2.47105 14.1039 3.02357 15.5772C3.11565 15.8167 2.99594 16.0837 2.75652 16.1666C2.51709 16.2587 2.25004 16.1298 2.16716 15.8995C1.71594 14.6932 1.49493 13.4961 1.49493 12.2529C1.49493 11.1479 1.70673 10.1441 2.12112 9.26932C3.34587 6.70011 6.06241 5.03335 9.0368 5.03335C13.2267 5.03335 16.6339 8.26558 16.6339 12.2437C16.6339 13.7355 15.3631 14.951 13.7977 14.951C12.2322 14.951 10.9614 13.7355 10.9614 12.2437C10.9614 11.2584 10.105 10.4572 9.04601 10.4572C7.98702 10.4572 7.13062 11.2584 7.13062 12.2437C7.13062 13.8184 7.73839 15.2918 8.85263 16.3968C9.72745 17.2624 10.5654 17.7413 11.8639 18.1004C12.1125 18.1649 12.2506 18.4227 12.1862 18.6621C12.1401 18.8739 11.9467 19.0121 11.7534 19.0121Z" fill="white"/>

</symbol>

<symbol id="search" viewBox="0 0 20 20">

<path d="M12.2934 11.062H11.5344L11.2654 10.8026C12.2069 9.70741 12.7737 8.28555 12.7737 6.7388C12.7737 3.28983 9.97806 0.494141 6.52908 0.494141C3.08011 0.494141 0.284424 3.28983 0.284424 6.7388C0.284424 10.1878 3.08011 12.9835 6.52908 12.9835C8.07584 12.9835 9.4977 12.4166 10.5929 11.4751L10.8523 11.7441V12.5031L15.6559 17.2971L17.0874 15.8656L12.2934 11.062ZM6.52908 11.062C4.1369 11.062 2.20586 9.13098 2.20586 6.7388C2.20586 4.34661 4.1369 2.41557 6.52908 2.41557C8.92127 2.41557 10.8523 4.34661 10.8523 6.7388C10.8523 9.13098 8.92127 11.062 6.52908 11.062Z" fill="#046AF3"/>

</symbol>

<symbol id="bell" viewBox="0 0 20 20">

<path d="M5.40749 1.7663L4.12027 0.479079C1.95989 2.12637 0.537643 4.66481 0.411621 7.54531H2.21194C2.34696 5.1599 3.57117 3.07153 5.40749 1.7663ZM16.5604 7.54531H18.3608C18.2257 4.66481 16.8035 2.12637 14.6521 0.479079L13.3739 1.7663C15.1922 3.07153 16.4254 5.1599 16.5604 7.54531ZM14.7871 7.99539C14.7871 5.23191 13.3109 2.9185 10.7364 2.3064V1.69429C10.7364 0.947161 10.1333 0.344055 9.38619 0.344055C8.63906 0.344055 8.03595 0.947161 8.03595 1.69429V2.3064C5.4525 2.9185 3.98524 5.22291 3.98524 7.99539V12.4962L2.18493 14.2965V15.1967H16.5874V14.2965L14.7871 12.4962V7.99539ZM9.38619 17.8971C9.51221 17.8971 9.62923 17.8881 9.74625 17.8611C10.3314 17.7351 10.8084 17.339 11.0425 16.7989C11.1325 16.5829 11.1775 16.3489 11.1775 16.0968H7.57687C7.58587 17.087 8.38701 17.8971 9.38619 17.8971Z" fill="#046AF3"/>

</symbol>

<symbol id="dot" viewBox="0 0 20 20">

<path d="M2.39252 3.695C3.27267 3.695 3.99279 2.97488 3.99279 2.09473C3.99279 1.21457 3.27267 0.494446 2.39252 0.494446C1.51236 0.494446 0.792236 1.21457 0.792236 2.09473C0.792236 2.97488 1.51236 3.695 2.39252 3.695ZM2.39252 5.29528C1.51236 5.29528 0.792236 6.01541 0.792236 6.89556C0.792236 7.77572 1.51236 8.49584 2.39252 8.49584C3.27267 8.49584 3.99279 7.77572 3.99279 6.89556C3.99279 6.01541 3.27267 5.29528 2.39252 5.29528ZM2.39252 10.0961C1.51236 10.0961 0.792236 10.8162 0.792236 11.6964C0.792236 12.5766 1.51236 13.2967 2.39252 13.2967C3.27267 13.2967 3.99279 12.5766 3.99279 11.6964C3.99279 10.8162 3.27267 10.0961 2.39252 10.0961Z" fill="#046AF3"/>

</symbol>


<symbol id="circle-regular" viewBox="0 0 20 20">
<path fill="currentColor" d="M256 8C119 8 8 119 8 256s111 248 248 248 248-111 248-248S393 8 256 8zm0 448c-110.5 0-200-89.5-200-200S145.5 56 256 56s200 89.5 200 200-89.5 200-200 200z"></path>

</symbol>

<symbol id="search1" viewBox="0 0 20 20">
<path d="M12.9 14.32c-1.34 1.049-3.050 1.682-4.908 1.682-4.418 0-8-3.582-8-8s3.582-8 8-8c4.418 0 8 3.582 8 8 0 1.858-0.633 3.567-1.695 4.925l0.013-0.018 5.35 5.33-1.42 1.42-5.33-5.34zM8 14c3.314 0 6-2.686 6-6s-2.686-6-6-6v0c-3.314 0-6 2.686-6 6s2.686 6 6 6v0z"></path>

</symbol>

<symbol id="download" viewBox="0 0 20 20">

<path d="M13 8v-6h-6v6h-5l8 8 8-8h-5zM0 18h20v2h-20v-2z"></path>

</symbol>
</defs>
</svg>

