<svg width="18" height="20" viewBox="0 0 18 20" fill="none" xmlns="http://www.w3.org/2000/svg">
<path d="M14.4239 2.86932C14.3502 2.86932 14.2765 2.8509 14.2121 2.81407C12.444 1.90241 10.9154 1.51565 9.08285 1.51565C7.25954 1.51565 5.52831 1.94846 3.95364 2.81407C3.73263 2.93378 3.45637 2.8509 3.32745 2.6299C3.20774 2.40889 3.29062 2.12342 3.51162 2.00371C5.22443 1.07364 7.10299 0.594788 9.08285 0.594788C11.0443 0.594788 12.7571 1.02759 14.6357 1.9945C14.8659 2.11421 14.9487 2.39047 14.829 2.61148C14.7462 2.77723 14.5896 2.86932 14.4239 2.86932ZM1.2463 7.70385C1.15421 7.70385 1.06213 7.67623 0.979249 7.62098C0.767451 7.47364 0.721407 7.18817 0.868745 6.97637C1.7804 5.68716 2.94069 4.67421 4.32198 3.96515C7.21349 2.47335 10.9154 2.46414 13.8161 3.95594C15.1974 4.665 16.3577 5.66874 17.2693 6.94874C17.4167 7.15133 17.3706 7.44601 17.1588 7.59335C16.947 7.74069 16.6616 7.69464 16.5142 7.48284C15.6854 6.32256 14.6357 5.4109 13.3925 4.77551C10.7496 3.42184 7.37004 3.42184 4.73637 4.78472C3.484 5.42932 2.43421 6.35018 1.60544 7.51047C1.53177 7.63939 1.39364 7.70385 1.2463 7.70385ZM7.0017 18.8187C6.88198 18.8187 6.76227 18.7726 6.67939 18.6805C5.87824 17.8794 5.44544 17.3637 4.82846 16.2495C4.19306 15.1168 3.86155 13.7355 3.86155 12.2529C3.86155 9.51795 6.20054 7.28946 9.07364 7.28946C11.9467 7.28946 14.2857 9.51795 14.2857 12.2529C14.2857 12.5108 14.0831 12.7133 13.8253 12.7133C13.5675 12.7133 13.3649 12.5108 13.3649 12.2529C13.3649 10.0244 11.4403 8.21033 9.07364 8.21033C6.70702 8.21033 4.78242 10.0244 4.78242 12.2529C4.78242 13.579 5.07709 14.8037 5.63882 15.7982C6.22817 16.8572 6.63335 17.3085 7.34242 18.0267C7.51738 18.2109 7.51738 18.4964 7.34242 18.6805C7.24112 18.7726 7.12141 18.8187 7.0017 18.8187ZM13.6043 17.1151C12.5085 17.1151 11.5416 16.8388 10.7496 16.2955C9.37752 15.3654 8.55795 13.8552 8.55795 12.2529C8.55795 11.9951 8.76054 11.7925 9.01839 11.7925C9.27623 11.7925 9.47882 11.9951 9.47882 12.2529C9.47882 13.5513 10.1418 14.7761 11.2653 15.5312C11.9191 15.9732 12.6834 16.185 13.6043 16.185C13.8253 16.185 14.1936 16.1574 14.562 16.0929C14.8106 16.0469 15.05 16.2126 15.0961 16.4705C15.1421 16.7191 14.9764 16.9585 14.7185 17.0046C14.1936 17.1059 13.7332 17.1151 13.6043 17.1151ZM11.7534 19.0121C11.7165 19.0121 11.6705 19.0028 11.6336 18.9936C10.1695 18.5885 9.21177 18.0451 8.20803 17.0598C6.91882 15.7798 6.20975 14.0762 6.20975 12.2529C6.20975 10.7611 7.48054 9.54558 9.04601 9.54558C10.6115 9.54558 11.8823 10.7611 11.8823 12.2529C11.8823 13.2382 12.7387 14.0394 13.7977 14.0394C14.8567 14.0394 15.7131 13.2382 15.7131 12.2529C15.7131 8.78126 12.7203 5.96342 9.0368 5.96342C6.42155 5.96342 4.02731 7.41838 2.9499 9.6745C2.59076 10.4204 2.40659 11.2952 2.40659 12.2529C2.40659 12.9712 2.47105 14.1039 3.02357 15.5772C3.11565 15.8167 2.99594 16.0837 2.75652 16.1666C2.51709 16.2587 2.25004 16.1298 2.16716 15.8995C1.71594 14.6932 1.49493 13.4961 1.49493 12.2529C1.49493 11.1479 1.70673 10.1441 2.12112 9.26932C3.34587 6.70011 6.06241 5.03335 9.0368 5.03335C13.2267 5.03335 16.6339 8.26558 16.6339 12.2437C16.6339 13.7355 15.3631 14.951 13.7977 14.951C12.2322 14.951 10.9614 13.7355 10.9614 12.2437C10.9614 11.2584 10.105 10.4572 9.04601 10.4572C7.98702 10.4572 7.13062 11.2584 7.13062 12.2437C7.13062 13.8184 7.73839 15.2918 8.85263 16.3968C9.72745 17.2624 10.5654 17.7413 11.8639 18.1004C12.1125 18.1649 12.2506 18.4227 12.1862 18.6621C12.1401 18.8739 11.9467 19.0121 11.7534 19.0121Z" fill="white"/>
</svg>
